<svg width="32" height="32" viewBox="0 0 32 32" fill="none" xmlns="http://www.w3.org/2000/svg">
<path d="M1.77739 5.33328C0.795558 4.35145 0.795558 2.75959 1.77739 1.77776C2.75922 0.795924 4.35108 0.795924 5.33291 1.77776L30.2216 26.6664C31.2034 27.6483 31.2034 29.2401 30.2216 30.222C29.2398 31.2038 27.6479 31.2038 26.6661 30.222L1.77739 5.33328Z" fill="#222222"/>
<path d="M26.6661 1.77782C27.6479 0.795985 29.2398 0.795985 30.2216 1.77782C31.2034 2.75965 31.2034 4.35151 30.2216 5.33334L5.33292 30.222C4.35108 31.2039 2.75922 31.2039 1.77739 30.222C0.795558 29.2402 0.795558 27.6483 1.77739 26.6665L26.6661 1.77782Z" fill="#222222"/>
</svg>
